<svg xmlns="http://www.w3.org/2000/svg" width="26" height="26" viewBox="0 0 26 26" fill="none"><script xmlns=""/>
<path fill-rule="evenodd" clip-rule="evenodd" d="M17.8682 15.1091C17.6038 14.9775 16.3041 14.341 16.0618 14.2532C15.8194 14.1654 15.6432 14.1215 15.4669 14.3848C15.2907 14.6482 14.7841 15.2409 14.6298 15.4165C14.4756 15.592 14.3214 15.6141 14.0571 15.4824C13.7926 15.3506 12.9408 15.0728 11.931 14.1764C11.1451 13.4788 10.6145 12.6172 10.4603 12.3538C10.3061 12.0904 10.4439 11.948 10.5762 11.8168C10.6952 11.6989 10.8406 11.5095 10.9728 11.3559C11.105 11.2022 11.149 11.0924 11.2371 10.917C11.3253 10.7413 11.2812 10.5877 11.2151 10.456C11.149 10.3243 10.6203 9.02918 10.4 8.50232C10.1854 7.98939 9.96745 8.05887 9.80516 8.05069C9.65113 8.04306 9.47468 8.04145 9.29849 8.04145C9.12224 8.04145 8.83581 8.10729 8.59351 8.37064C8.35116 8.6341 7.66819 9.27063 7.66819 10.5656C7.66819 11.8607 8.61553 13.1118 8.74774 13.2874C8.87989 13.463 10.6119 16.1205 13.264 17.2602C13.8947 17.5313 14.3872 17.6932 14.7711 17.8144C15.4044 18.0147 15.9807 17.9865 16.4362 17.9187C16.9442 17.8432 18.0004 17.2822 18.2207 16.6677C18.441 16.053 18.441 15.5262 18.3749 15.4165C18.3088 15.3068 18.1326 15.2409 17.8682 15.1091ZM13.0444 21.664H13.0409C11.4629 21.6634 9.91514 21.2415 8.56489 20.4441L8.24381 20.2544L4.91539 21.1233L5.80377 17.8937L5.5947 17.5626C4.71439 16.1691 4.24947 14.5586 4.25013 12.9049C4.25206 8.07931 8.19713 4.15341 13.0479 4.15341C15.3969 4.15422 17.6049 5.06582 19.2653 6.72012C20.9256 8.37438 21.8395 10.5734 21.8386 12.9119C21.8366 17.7378 17.8915 21.664 13.0444 21.664ZM20.5289 5.46307C18.5313 3.4727 15.8748 2.37611 13.0443 2.375C7.21246 2.375 2.46601 7.09839 2.46368 12.9041C2.46292 14.7601 2.95011 16.5715 3.87603 18.1685L2.375 23.625L7.9839 22.1607C9.52932 22.9996 11.2693 23.4418 13.0401 23.4424H13.0444C18.8757 23.4424 23.6227 18.7185 23.625 12.9126C23.6261 10.099 22.5265 7.45339 20.5289 5.46307Z" fill="white"/>
<script xmlns=""/></svg>